<svg xmlns="http://www.w3.org/2000/svg" width="17" height="17" viewBox="0 0 200 200" fill="none">
  <path d="M143.75 16.6666C146.759 16.6666 149.739 17.2594 152.52 18.4111C155.3 19.5627 157.826 21.2508 159.954 23.3788C162.082 25.5068 163.77 28.0331 164.922 30.8135C166.074 33.5938 166.667 36.5738 166.667 39.5833V160.417C166.667 163.426 166.074 166.406 164.922 169.186C163.77 171.967 162.082 174.493 159.954 176.621C157.826 178.749 155.3 180.437 152.52 181.589C149.739 182.741 146.759 183.333 143.75 183.333H56.2499C53.2398 183.333 50.2591 182.74 47.4782 181.588C44.6972 180.436 42.1706 178.747 40.0424 176.618C37.9143 174.489 36.2265 171.962 35.0753 169.181C33.9241 166.399 33.3322 163.418 33.3333 160.408V39.5833C33.3333 33.5054 35.7477 27.6765 40.0454 23.3788C44.3431 19.0811 50.172 16.6666 56.2499 16.6666H58.6749V84.725C58.6749 90.9583 65.2582 93.175 69.6666 90.8916L70.4166 90.4333L87.8583 80.4583L105.692 90.7083C109.408 93.275 116.2 91.5416 116.942 85.7916L117.008 84.725V16.6666H143.75ZM104.508 16.6666V75.6333L90.9999 67.8666C89.953 67.408 88.8177 67.1866 87.6752 67.2183C86.5327 67.25 85.4114 67.534 84.3916 68.05L83.4999 68.575L71.1749 75.625V16.6666H104.508Z" fill="#3C3B3B"/>
</svg>