<svg xmlns="http://www.w3.org/2000/svg" width="17" height="17" viewBox="0 0 200 200" fill="none">
  <path d="M168.75 28.125H31.25C27.106 28.125 23.1317 29.7712 20.2015 32.7015C17.2712 35.6317 15.625 39.606 15.625 43.75V168.75C15.6252 170.348 16.0339 171.92 16.8124 173.316C17.5909 174.711 18.7133 175.885 20.073 176.725C21.4327 177.565 22.9845 178.043 24.5811 178.115C26.1777 178.186 27.7661 177.848 29.1953 177.133L50 166.734L70.8047 177.133C72.1072 177.785 73.5436 178.124 75 178.124C76.4564 178.124 77.8928 177.785 79.1953 177.133L100 166.734L120.805 177.133C122.107 177.785 123.544 178.124 125 178.124C126.456 178.124 127.893 177.785 129.195 177.133L150 166.734L170.805 177.133C172.234 177.848 173.822 178.186 175.419 178.115C177.015 178.043 178.567 177.565 179.927 176.725C181.287 175.885 182.409 174.711 183.188 173.316C183.966 171.92 184.375 170.348 184.375 168.75V43.75C184.375 39.606 182.729 35.6317 179.799 32.7015C176.868 29.7712 172.894 28.125 168.75 28.125ZM165.625 153.578L154.195 147.867C152.893 147.215 151.456 146.876 150 146.876C148.544 146.876 147.107 147.215 145.805 147.867L125 158.266L104.195 147.867C102.893 147.215 101.456 146.876 100 146.876C98.5436 146.876 97.1072 147.215 95.8047 147.867L75 158.266L54.1953 147.867C52.8928 147.215 51.4564 146.876 50 146.876C48.5436 146.876 47.1072 147.215 45.8047 147.867L34.375 153.578V46.875H165.625V153.578ZM48.9297 133.383C51.153 134.495 53.7271 134.679 56.0859 133.894C58.4447 133.108 60.395 131.418 61.5078 129.195L63.6094 125H92.6406L94.7422 129.195C95.2821 130.314 96.0392 131.315 96.9693 132.139C97.8994 132.963 98.984 133.594 100.16 133.995C101.336 134.396 102.58 134.559 103.82 134.475C105.06 134.391 106.27 134.061 107.382 133.505C108.493 132.949 109.482 132.178 110.293 131.236C111.103 130.294 111.718 129.2 112.102 128.018C112.486 126.836 112.631 125.59 112.529 124.352C112.427 123.113 112.08 121.908 111.508 120.805L86.5078 70.8047C85.7287 69.2487 84.5319 67.9403 83.0514 67.0259C81.5709 66.1115 79.8651 65.6272 78.125 65.6272C76.3849 65.6272 74.6791 66.1115 73.1986 67.0259C71.7181 67.9403 70.5213 69.2487 69.7422 70.8047L44.7422 120.805C43.6298 123.028 43.446 125.602 44.2313 127.961C45.0166 130.32 46.7066 132.27 48.9297 133.383ZM83.2656 106.25H72.9844L78.125 95.9609L83.2656 106.25ZM112.5 100C112.5 97.5136 113.488 95.129 115.246 93.3709C117.004 91.6127 119.389 90.625 121.875 90.625H125V87.5C125 85.0136 125.988 82.629 127.746 80.8709C129.504 79.1127 131.889 78.125 134.375 78.125C136.861 78.125 139.246 79.1127 141.004 80.8709C142.762 82.629 143.75 85.0136 143.75 87.5V90.625H146.875C149.361 90.625 151.746 91.6127 153.504 93.3709C155.262 95.129 156.25 97.5136 156.25 100C156.25 102.486 155.262 104.871 153.504 106.629C151.746 108.387 149.361 109.375 146.875 109.375H143.75V112.5C143.75 114.986 142.762 117.371 141.004 119.129C139.246 120.887 136.861 121.875 134.375 121.875C131.889 121.875 129.504 120.887 127.746 119.129C125.988 117.371 125 114.986 125 112.5V109.375H121.875C119.389 109.375 117.004 108.387 115.246 106.629C113.488 104.871 112.5 102.486 112.5 100Z" fill="#3C3B3B"/>
</svg>