<svg xmlns="http://www.w3.org/2000/svg" width="15" height="15" viewBox="0 0 200 200" fill="none">
  <path d="M104.837 8.65942L82.9937 41.6602L94.602 43.1184C91.0004 54.8879 90.268 62.9926 91.1312 79.1028C96.6539 78.2317 101.116 77.9211 106.985 79.6457C103.127 65.2551 103.53 60.3383 105.079 44.5801L117.822 45.4696L104.837 8.65942ZM190.181 9.52271L147.853 21.2532L156.023 31.3997C136.682 43.5165 124.644 53.0981 115.109 79.5106C120.266 79.4512 126.085 80.6516 132.364 83.0278C134.602 65.5801 145.544 53.2856 163.342 40.4817L171.148 50.1754L190.181 9.52271ZM9.09766 10.425L34.8316 50.4583L42.2863 39.243C56.1746 51.9149 64.9992 69.0594 64.6723 81.2079C71.9254 77.811 76.3625 77.4864 84.1 79.7321C80.934 67.5434 67.0777 37.2625 48.3035 29.3012L54.7762 19.1305L9.09805 10.4247L9.09766 10.425ZM116.956 94.2793C114.893 94.3262 112.968 95.2227 110.34 98.027L107.775 100.749L105.114 98.1243C102.229 95.2805 99.952 94.4954 97.6437 94.5969C95.3359 94.6985 92.6223 95.9122 89.5871 98.3688L87.1586 100.334L84.8516 98.2344C81.375 95.0891 78.4121 94.1567 75.5742 94.3032C73.5086 94.4102 71.3652 95.1883 69.2266 96.5493L85.2289 125.334C91.2656 129.026 103.602 130.415 112.084 126.14L127.551 97.4899C124.617 96.2938 121.98 95.0672 119.702 94.5969C118.877 94.4262 118.112 94.3016 117.37 94.2793C117.232 94.2759 117.094 94.2759 116.956 94.2793ZM81.8113 131.853V131.854C74.7664 136.831 69.1098 145.415 66.9188 157.988C64.7957 170.174 68.141 178.404 74.0605 184.013C79.9801 189.622 88.866 192.504 97.8887 192.387C106.912 192.27 115.911 189.141 121.961 183.427C128.012 177.714 131.433 169.589 129.493 157.964C127.486 145.949 122.305 137.593 115.746 132.536C104.621 138.418 90.7094 137.168 81.8109 131.853H81.8113Z" fill="black"/>
</svg>