<svg xmlns="http://www.w3.org/2000/svg" width="17" height="17" viewBox="0 0 24 24" fill="none">
  <path d="M8 11.75V7.5C8 7.08334 8.146 6.72934 8.438 6.438C8.73 6.14667 9.084 6.00067 9.5 6C9.916 5.99934 10.2703 6.14534 10.563 6.438C10.8557 6.73067 11.0013 7.08467 11 7.5V11.75C11 12.1667 10.8543 12.521 10.563 12.813C10.2717 13.105 9.91733 13.2507 9.5 13.25C9.08267 13.2493 8.72867 13.1037 8.438 12.813C8.14733 12.5223 8.00133 12.168 8 11.75ZM13 11.525V3.5C13 3.08334 13.146 2.72934 13.438 2.438C13.73 2.14667 14.084 2.00067 14.5 2C14.916 1.99934 15.2703 2.14534 15.563 2.438C15.8557 2.73067 16.0013 3.08467 16 3.5V11.525C16 12.025 15.846 12.4 15.538 12.65C15.23 12.9 14.884 13.025 14.5 13.025C14.116 13.025 13.7703 12.9 13.463 12.65C13.1557 12.4 13.0013 12.025 13 11.525ZM3 14.975V11.5C3 11.0833 3.146 10.7293 3.438 10.438C3.73 10.1467 4.084 10.0007 4.5 10C4.916 9.99934 5.27033 10.1453 5.563 10.438C5.85567 10.7307 6.00133 11.0847 6 11.5V14.975C6 15.475 5.846 15.85 5.538 16.1C5.23 16.35 4.884 16.475 4.5 16.475C4.116 16.475 3.77033 16.35 3.463 16.1C3.15567 15.85 3.00133 15.475 3 14.975ZM5.4 21.05C4.96667 21.05 4.66233 20.846 4.487 20.438C4.31167 20.03 4.38267 19.6673 4.7 19.35L8.8 15.25C8.98333 15.0667 9.20433 14.9667 9.463 14.95C9.72167 14.9333 9.95067 15.0167 10.15 15.2L13 17.65L18.6 12.05H18C17.7167 12.05 17.4793 11.954 17.288 11.762C17.0967 11.57 17.0007 11.3327 17 11.05C16.9993 10.7673 17.0953 10.53 17.288 10.338C17.4807 10.146 17.718 10.05 18 10.05H21C21.2833 10.05 21.521 10.146 21.713 10.338C21.905 10.53 22.0007 10.7673 22 11.05V14.05C22 14.3333 21.904 14.571 21.712 14.763C21.52 14.955 21.2827 15.0507 21 15.05C20.7173 15.0493 20.48 14.9533 20.288 14.762C20.096 14.5707 20 14.3333 20 14.05V13.45L13.75 19.7C13.5667 19.8833 13.3457 19.9833 13.087 20C12.8283 20.0167 12.5993 19.9333 12.4 19.75L9.55 17.3L6.1 20.75C6.01667 20.8333 5.91267 20.9043 5.788 20.963C5.66333 21.0217 5.534 21.0507 5.4 21.05Z" fill="black"/>
</svg>