<svg xmlns="http://www.w3.org/2000/svg" width="17" height="17" viewBox="0 0 200 200" fill="none">
  <path d="M175 25H25.0002C15.8335 25 8.3335 32.5 8.3335 41.6667V108.333H25.0002V41.6667H175V175C184.167 175 191.667 167.5 191.667 158.333V41.6667C191.667 32.5 184.167 25 175 25Z" fill="#3C3B3B"/>
  <path d="M74.9998 116.667C93.4093 116.667 108.333 101.743 108.333 83.3333C108.333 64.9238 93.4093 50 74.9998 50C56.5903 50 41.6665 64.9238 41.6665 83.3333C41.6665 101.743 56.5903 116.667 74.9998 116.667Z" fill="#3C3B3B"/>
  <path d="M128.25 138C114.25 130.833 96.0836 125 75.0002 125C53.9169 125 35.7502 130.833 21.7502 138C17.684 140.094 14.2777 143.274 11.9094 147.187C9.54104 151.1 8.3033 155.593 8.33355 160.167V183.333H141.667V160.167C141.667 150.833 136.584 142.25 128.25 138Z" fill="#3C3B3B"/>
</svg>