<svg xmlns="http://www.w3.org/2000/svg" width="17" height="17" viewBox="0 0 84 84" fill="none">
  <path d="M44.946 1.55417L82.446 39.0542C85.071 41.6792 83.2126 46.1667 79.5001 46.1667H75.3335V71.1667C75.3335 74.4819 74.0165 77.6613 71.6723 80.0055C69.3281 82.3497 66.1487 83.6667 62.8335 83.6667H58.6668V54.5C58.667 51.3116 57.4488 48.2437 55.2614 45.9239C53.0741 43.6041 50.083 42.2079 46.9001 42.0208L46.1668 42H37.8335C34.5183 42 31.3388 43.317 28.9946 45.6612C26.6504 48.0054 25.3335 51.1848 25.3335 54.5V83.6667H21.1668C17.8516 83.6667 14.6722 82.3497 12.328 80.0055C9.98375 77.6613 8.66679 74.4819 8.66679 71.1667V46.1667H4.50012C0.791788 46.1667 -1.07071 41.6792 1.55429 39.0542L39.0543 1.55417C39.8357 0.773042 40.8953 0.334229 42.0001 0.334229C43.105 0.334229 44.1646 0.773042 44.946 1.55417ZM46.1668 50.3333C47.2719 50.3333 48.3317 50.7723 49.1131 51.5537C49.8945 52.3351 50.3335 53.3949 50.3335 54.5V83.6667H33.6668V54.5C33.6669 53.4794 34.0416 52.4944 34.7198 51.7318C35.3979 50.9691 36.3324 50.4819 37.346 50.3625L37.8335 50.3333H46.1668Z" fill="#3C3B3B"/>
</svg>