<svg xmlns="http://www.w3.org/2000/svg" width="17" height="17" viewBox="0 0 200 200" fill="none">
  <path fill-rule="evenodd" clip-rule="evenodd" d="M89.9667 18.7C105.442 15.2167 116.667 28.5167 116.667 41.6667V158.333C116.667 171.483 105.442 184.783 89.9667 181.3C52.7833 172.933 25 139.717 25 100C25 60.2833 52.7833 27.0667 89.9667 18.7ZM135.775 69.1083C137.338 67.5461 139.457 66.6685 141.667 66.6685C143.876 66.6685 145.996 67.5461 147.558 69.1083L172.558 94.1083C174.121 95.6711 174.998 97.7903 174.998 100C174.998 102.21 174.121 104.329 172.558 105.892L147.558 130.892C145.987 132.41 143.882 133.25 141.697 133.231C139.512 133.212 137.422 132.335 135.877 130.79C134.331 129.245 133.455 127.155 133.436 124.97C133.417 122.785 134.257 120.68 135.775 119.108L146.55 108.333H75C72.7899 108.333 70.6702 107.455 69.1074 105.893C67.5446 104.33 66.6667 102.21 66.6667 100C66.6667 97.7899 67.5446 95.6703 69.1074 94.1075C70.6702 92.5447 72.7899 91.6667 75 91.6667H146.55L135.775 80.8917C134.213 79.3289 133.335 77.2097 133.335 75C133.335 72.7903 134.213 70.6711 135.775 69.1083Z" fill="#3C3B3B"/>
</svg>