<svg xmlns="http://www.w3.org/2000/svg" width="15" height="15" viewBox="0 0 200 200" fill="none">
  <path d="M7.33594 7.61719V38.7328C24.7906 40.9133 39.1785 48.4852 52.9051 57.1531L43.2371 64.9902L82.9961 85.2656L72.082 41.6016L61.9629 49.8047C54.0625 34.1758 45.2527 19.4414 33.5449 7.61719H7.33594ZM115.686 7.61719C109.583 18.8535 104.277 30.3227 99.3656 42.0531L87.5727 39.5508L97.7055 83.3984L123.901 47.2656L112.341 44.8125C125.345 31.2395 138.746 18.3309 154.553 7.61719H115.686ZM192.834 44.275C177.995 45.2445 164.694 51.9613 151.807 60.2539L146.936 47.5469L115.662 79.9074L160.23 82.2266L155.054 68.7254C167.648 68.3605 180.241 69.4391 192.834 77.075V44.275ZM117.041 94.2867C114.979 94.3336 113.053 95.2305 110.425 98.0348L107.861 100.757L105.2 98.1316C102.314 95.2879 100.037 94.5027 97.7293 94.6043C95.4215 94.7059 92.7078 95.9195 89.6727 98.3762L87.2437 100.341L84.9367 98.2418C81.4602 95.0965 78.4973 94.1645 75.6594 94.3109C73.5938 94.418 71.4504 95.1961 69.3117 96.557L85.3148 125.341C91.3516 129.034 103.687 130.422 112.17 126.147L127.637 97.4973C124.703 96.3012 122.066 95.0746 119.788 94.6043C118.963 94.4336 118.197 94.309 117.455 94.2867C117.317 94.2832 117.179 94.2832 117.041 94.2867ZM81.8969 131.861C74.852 136.838 69.1953 145.423 67.0043 157.996C64.8813 170.182 68.2262 178.412 74.1457 184.021C80.0656 189.63 88.9512 192.512 97.9738 192.395C106.997 192.277 115.996 189.148 122.046 183.435C128.097 177.721 131.519 169.597 129.578 157.971C127.571 145.957 122.391 137.601 115.832 132.544C104.706 138.425 90.7953 137.175 81.8969 131.86V131.861Z" fill="black"/>
</svg>