

<svg xmlns="http://www.w3.org/2000/svg" width="24" height="24" viewBox="0 0 24 24" fill="none">
  <path d="M20 20.0001L15.95 15.9501M15.95 15.9501C16.6 15.3001 17.1157 14.5284 17.4675 13.679C17.8193 12.8297 18.0003 11.9194 18.0003 11.0001C18.0003 10.0808 17.8193 9.17051 17.4675 8.32119C17.1157 7.47187 16.6 6.70016 15.95 6.05011C15.2999 5.40007 14.5282 4.88443 13.6789 4.53263C12.8296 4.18083 11.9193 3.99976 11 3.99976C10.0807 3.99976 9.17039 4.18083 8.32107 4.53263C7.47175 4.88443 6.70003 5.40007 6.04999 6.05011C4.73717 7.36293 3.99963 9.1435 3.99963 11.0001C3.99963 12.8567 4.73717 14.6373 6.04999 15.9501C7.36281 17.2629 9.14338 18.0005 11 18.0005C12.8566 18.0005 14.6372 17.2629 15.95 15.9501Z" stroke="black" stroke-width="2" stroke-linecap="round" stroke-linejoin="round"/>
</svg>