<svg xmlns="http://www.w3.org/2000/svg" width="17" height="17" viewBox="0 0 200 200" fill="none">
  <g clip-path="url(#clip0_56_56)">
    <path d="M110.78 0C113.72 0 116.35 1.83 117.34 4.57L124.4 24.14C126.926 24.7667 129.106 25.4067 130.94 26.06C132.94 26.7733 135.54 27.8733 138.74 29.36L155.18 20.66C156.521 19.9458 158.058 19.6874 159.559 19.9237C161.06 20.16 162.443 20.8783 163.5 21.97L177.96 36.92C179.88 38.91 180.42 41.82 179.34 44.36L171.63 62.43C172.903 64.7767 173.93 66.79 174.71 68.47C175.55 70.29 176.59 72.8233 177.83 76.07L195.8 83.77C198.5 84.92 200.17 87.62 199.99 90.51L198.67 111.26C198.58 112.608 198.096 113.9 197.278 114.975C196.46 116.051 195.345 116.863 194.07 117.31L177.05 123.36C176.563 125.707 176.05 127.727 175.51 129.42C174.636 132.044 173.642 134.627 172.53 137.16L181.08 156.06C181.688 157.387 181.853 158.875 181.551 160.303C181.248 161.731 180.494 163.024 179.4 163.99L163.14 178.51C162.071 179.466 160.734 180.071 159.311 180.243C157.887 180.414 156.445 180.145 155.18 179.47L138.42 170.59C135.8 171.984 133.095 173.21 130.32 174.26L123 177L116.5 195C116.013 196.315 115.143 197.454 114.002 198.269C112.861 199.084 111.502 199.537 110.1 199.57L91.0998 200C89.6603 200.033 88.2456 199.622 87.0484 198.822C85.8512 198.022 84.9298 196.873 84.4098 195.53L76.7498 175.26C74.1369 174.365 71.5492 173.398 68.9898 172.36C66.897 171.454 64.8358 170.477 62.8098 169.43L43.8098 177.55C42.5583 178.087 41.1775 178.247 39.8365 178.01C38.4955 177.774 37.2525 177.152 36.2598 176.22L22.1998 163.03C21.1491 162.055 20.4334 160.773 20.1551 159.366C19.8767 157.96 20.0498 156.502 20.6498 155.2L28.8198 137.4C27.737 135.29 26.7297 133.142 25.7998 130.96C24.7165 128.288 23.716 125.584 22.7998 122.85L4.89977 117.4C3.44478 116.96 2.17571 116.052 1.28967 114.817C0.40362 113.582 -0.0498193 112.089 -0.000231559 110.57L0.699768 91.36C0.75177 90.1072 1.14419 88.8922 1.83485 87.8456C2.52551 86.799 3.48831 85.9605 4.61977 85.42L23.3998 76.4C24.2664 73.2133 25.0331 70.72 25.6998 68.92C26.6433 66.5025 27.6909 64.127 28.8398 61.8L20.6998 44.6C20.0773 43.2948 19.8872 41.8252 20.1569 40.4045C20.4267 38.9839 21.1423 37.6862 22.1998 36.7L36.2398 23.44C37.2227 22.5095 38.4542 21.884 39.7854 21.639C41.1165 21.3941 42.49 21.5403 43.7398 22.06L62.7198 29.9C64.8131 28.5067 66.7198 27.36 68.4398 26.46C70.4864 25.38 73.2331 24.2267 76.6798 23L83.2798 4.59C83.7726 3.24592 84.6658 2.08527 85.8388 1.26454C87.0117 0.443815 88.4082 0.00246609 89.8398 0L110.78 0ZM100.24 70.19C83.5698 70.19 70.0598 83.54 70.0598 100.02C70.0598 116.5 83.5698 129.86 100.24 129.86C116.91 129.86 130.41 116.5 130.41 100.02C130.41 83.54 116.91 70.19 100.24 70.19Z" fill="#3C3B3B"/>
  </g>
  <defs>
    <clipPath id="clip0_56_56">
      <rect width="200" height="200" fill="white"/>
    </clipPath>
  </defs>
</svg>