<svg xmlns="http://www.w3.org/2000/svg" width="17" height="17" viewBox="0 0 200 200" fill="none">
  <path d="M100 48.625L98.0438 49.2187L19.9188 75.3937L2.15625 81.25L12.5 84.5625V139.25C8.76875 141.419 6.25 145.375 6.25 150C6.25 153.315 7.56696 156.495 9.91117 158.839C12.2554 161.183 15.4348 162.5 18.75 162.5C22.0652 162.5 25.2446 161.183 27.5888 158.839C29.933 156.495 31.25 153.315 31.25 150C31.25 145.375 28.7312 141.419 25 139.25V88.875L37.5 92.9687V125C37.5 130.125 40.625 134.375 44.3375 137.312C48.05 140.231 52.6625 142.294 58.2 144.144C69.2875 147.831 83.9 150 100 150C116.1 150 130.713 147.837 141.8 144.137C147.338 142.294 151.95 140.231 155.663 137.306C159.375 134.375 162.5 130.125 162.5 125V92.9687L180.081 87.1063L197.844 81.25L180.075 75.3875L101.95 49.2187L100 48.625ZM100 61.7187L158.594 81.25L100 100.781L41.4063 81.25L100 61.7187ZM50 97.2687L98.05 113.281L100 113.869L101.956 113.275L150 97.2625V125C150 125.062 150.025 125.787 148.044 127.344C146.069 128.906 142.525 130.875 137.888 132.425C128.625 135.506 114.969 137.5 100 137.5C85.0312 137.5 71.375 135.512 62.1063 132.419C57.4812 130.875 53.9312 128.9 51.9562 127.344C49.9687 125.781 50 125.062 50 125V97.2687Z" fill="#3C3B3B"/>
</svg>