<svg xmlns="http://www.w3.org/2000/svg" width="17" height="17" viewBox="0 0 200 200" fill="none">
  <path d="M108.333 133.333H24.9998C22.7897 133.333 20.6701 134.211 19.1073 135.774C17.5445 137.337 16.6665 139.457 16.6665 141.667C16.6665 143.877 17.5445 145.996 19.1073 147.559C20.6701 149.122 22.7897 150 24.9998 150H108.333C110.543 150 112.663 149.122 114.226 147.559C115.789 145.996 116.667 143.877 116.667 141.667C116.667 139.457 115.789 137.337 114.226 135.774C112.663 134.211 110.543 133.333 108.333 133.333ZM24.9998 66.6667H175C177.21 66.6667 179.33 65.7887 180.892 64.2259C182.455 62.6631 183.333 60.5435 183.333 58.3333C183.333 56.1232 182.455 54.0036 180.892 52.4408C179.33 50.878 177.21 50 175 50H24.9998C22.7897 50 20.6701 50.878 19.1073 52.4408C17.5445 54.0036 16.6665 56.1232 16.6665 58.3333C16.6665 60.5435 17.5445 62.6631 19.1073 64.2259C20.6701 65.7887 22.7897 66.6667 24.9998 66.6667ZM175 91.6667H24.9998C22.7897 91.6667 20.6701 92.5446 19.1073 94.1074C17.5445 95.6702 16.6665 97.7899 16.6665 100C16.6665 102.21 17.5445 104.33 19.1073 105.893C20.6701 107.455 22.7897 108.333 24.9998 108.333H175C177.21 108.333 179.33 107.455 180.892 105.893C182.455 104.33 183.333 102.21 183.333 100C183.333 97.7899 182.455 95.6702 180.892 94.1074C179.33 92.5446 177.21 91.6667 175 91.6667Z" fill="#3C3B3B"/>
</svg>