<svg xmlns="http://www.w3.org/2000/svg" width="14" height="14" viewBox="0 0 701 624" fill="none">
  <path d="M699 540.333L665.667 411.667L560.667 25.3333C558.398 16.8113 552.844 9.53578 545.222 5.09997C537.6 0.664156 528.53 -0.570401 520 1.66665L391 35C387.921 31.5881 384.171 28.8497 379.983 26.9568C375.796 25.0638 371.262 24.0571 366.667 24H33.3333C24.4928 24 16.0143 27.5119 9.76311 33.7631C3.51189 40.0143 0 48.4928 0 57.3333V590.667C0 599.507 3.51189 607.986 9.76311 614.237C16.0143 620.488 24.4928 624 33.3333 624H366.667C375.507 624 383.986 620.488 390.237 614.237C396.488 607.986 400 599.507 400 590.667V324L473.333 598C475.287 605.272 479.645 611.668 485.697 616.148C491.75 620.627 499.141 622.924 506.667 622.667C509.547 622.981 512.453 622.981 515.333 622.667L676.333 579.667C680.59 578.529 684.578 576.558 688.068 573.869C691.559 571.18 694.481 567.826 696.667 564C700.183 556.625 701.008 548.253 699 540.333ZM165.667 558.667H65.6667V492H165.667V558.667ZM165.667 425.333H65.6667V225.333H165.667V425.333ZM165.667 158.667H65.6667V92H165.667V158.667ZM332.333 558.667H232.333V492H332.333V558.667ZM332.333 425.333H232.333V225.333H332.333V425.333ZM332.333 158.667H232.333V92H332.333V158.667ZM407.333 100.667L504 74.6666L521.333 139L424.667 165L407.333 100.667ZM493.667 422.667L442 229.333L538.667 203.333L590.333 396.667L493.667 422.667ZM527 551.333L509.667 487L606.333 461L623.667 525.333L527 551.333Z" fill="black"/>
</svg>