<svg xmlns="http://www.w3.org/2000/svg" width="17" height="17" viewBox="0 0 200 200" fill="none">
  <path d="M166.667 141.667C171.087 141.667 175.326 139.911 178.452 136.785C181.577 133.66 183.333 129.42 183.333 125V33.3333C183.333 28.913 181.577 24.6738 178.452 21.5482C175.326 18.4226 171.087 16.6667 166.667 16.6667H78.8333C81.75 21.75 83.3333 27.5 83.3333 33.3333H166.667V125H91.6667V141.667M125 58.3333V75H75V183.333H58.3333V133.333H41.6667V183.333H25V116.667H12.5V75C12.5 70.5797 14.2559 66.3405 17.3816 63.2149C20.5072 60.0893 24.7464 58.3333 29.1667 58.3333H125ZM66.6667 33.3333C66.6667 37.7536 64.9107 41.9928 61.7851 45.1184C58.6595 48.244 54.4203 50 50 50C45.5797 50 41.3405 48.244 38.2149 45.1184C35.0893 41.9928 33.3333 37.7536 33.3333 33.3333C33.3333 28.913 35.0893 24.6738 38.2149 21.5482C41.3405 18.4226 45.5797 16.6667 50 16.6667C54.4203 16.6667 58.6595 18.4226 61.7851 21.5482C64.9107 24.6738 66.6667 28.913 66.6667 33.3333Z" fill="#3C3B3B"/>
</svg>